<svg xmlns="http://www.w3.org/2000/svg" viewBox="0 0 200 170" fill="none">
  <defs>
    <linearGradient id="cTop" x1="40" y1="70" x2="160" y2="130" gradientUnits="userSpaceOnUse">
      <stop stop-color="#332a55"/><stop offset="1" stop-color="#201a3c"/>
    </linearGradient>
  </defs>
  <ellipse cx="100" cy="150" rx="64" ry="14" fill="#0a0818"/>
  <path d="M100 132 L168 100 L100 70 L32 100 Z" fill="url(#cTop)"/>
  <path d="M32 100 L100 132 L100 150 L32 116 Z" fill="#16122c"/>
  <path d="M168 100 L100 132 L100 150 L168 116 Z" fill="#0f0c22"/>
  <!-- castelo -->
  <rect x="84" y="74" width="14" height="34" fill="#2c2550"/>
  <rect x="98" y="80" width="20" height="28" fill="#241d44"/>
  <rect x="118" y="78" width="12" height="30" fill="#2a2350"/>
  <path d="M84 74 l7 -12 7 12 Z" fill="#4a3c86"/>
  <path d="M118 78 l6 -11 6 11 Z" fill="#4a3c86"/>
  <rect x="88" y="84" width="4" height="6" fill="#b79bff"/>
  <rect x="104" y="90" width="4" height="6" fill="#9b7dff"/>
  <rect x="122" y="88" width="3" height="5" fill="#b79bff"/>
</svg>
