<svg xmlns="http://www.w3.org/2000/svg" viewBox="0 0 200 170" fill="none">
  <defs>
    <linearGradient id="fTop" x1="40" y1="70" x2="160" y2="130" gradientUnits="userSpaceOnUse">
      <stop stop-color="#2b3a4f"/><stop offset="1" stop-color="#1c2638"/>
    </linearGradient>
  </defs>
  <ellipse cx="100" cy="150" rx="64" ry="14" fill="#0a0818"/>
  <path d="M100 132 L168 100 L100 70 L32 100 Z" fill="url(#fTop)"/>
  <path d="M32 100 L100 132 L100 150 L32 116 Z" fill="#141b29"/>
  <path d="M168 100 L100 132 L100 150 L168 116 Z" fill="#0e131f"/>
  <!-- pinheiros -->
  <g fill="#243a32">
    <path d="M82 96 l8 -20 8 20 Z"/><path d="M84 104 l6 -16 6 16 Z"/>
  </g>
  <g fill="#1d2f29">
    <path d="M104 102 l7 -17 7 17 Z"/><path d="M106 109 l5 -14 5 14 Z"/>
  </g>
  <g fill="#2a443a">
    <path d="M68 102 l6 -14 6 14 Z"/>
  </g>
  <g fill="#1a2823">
    <path d="M120 108 l6 -14 6 14 Z"/>
  </g>
</svg>
